<svg width="142" height="142" xmlns="http://www.w3.org/2000/svg" xmlns:xlink="http://www.w3.org/1999/xlink" xml:space="preserve" overflow="hidden"><g transform="translate(-184 -448)"><g><path d="M220.979 490.896 220.979 528.615C220.979 529.399 221.291 530.151 221.846 530.706L226.409 535.271 221.106 540.575C220.552 541.13 220.24 541.882 220.24 542.667L220.24 562.635C220.249 571.209 227.197 578.157 235.771 578.167L299.375 578.167C307.544 578.175 314.173 571.559 314.181 563.39 314.189 556.35 309.233 550.28 302.333 548.879L302.333 509.385C302.334 508.42 301.863 507.515 301.072 506.961L296.312 503.63 301.648 497.227C302.453 496.26 302.559 494.89 301.912 493.811L298.658 488.396 301.461 485.586C302.016 485.033 302.33 484.283 302.333 483.5L302.333 476.844C302.324 468.27 295.376 461.322 286.802 461.312L211.365 461.312C202.826 461.286 195.878 468.177 195.833 476.715 195.829 481.399 197.971 485.826 201.646 488.729 201.7 488.772 201.754 488.813 201.812 488.852 203.682 490.171 205.909 490.889 208.198 490.909ZM217.385 484.979C217.798 483.983 218.014 482.916 218.021 481.837 218.056 477.004 214.165 473.057 209.332 473.022 209.27 473.022 209.208 473.022 209.146 473.023 207.512 473.023 206.188 474.348 206.188 475.981 206.188 477.615 207.512 478.94 209.146 478.94 210.727 478.888 212.051 480.128 212.103 481.71 212.104 481.752 212.105 481.795 212.104 481.837 212.03 482.983 211.33 483.995 210.285 484.47 208.657 485.268 206.722 485.1 205.256 484.034 203.039 482.251 201.75 479.56 201.75 476.715 201.786 471.405 206.119 467.129 211.429 467.165 216.739 467.2 221.015 471.534 220.979 476.844L220.979 484.979ZM240.208 548.598C238.346 548.512 236.494 548.917 234.837 549.771 231.841 551.263 229.921 554.295 229.854 557.642 229.819 562.475 233.71 566.422 238.543 566.457 238.605 566.457 238.667 566.457 238.729 566.456 240.363 566.456 241.688 565.132 241.688 563.498 241.688 561.864 240.363 560.539 238.729 560.539 237.148 560.591 235.824 559.351 235.772 557.769 235.771 557.727 235.77 557.684 235.771 557.642 235.845 556.496 236.545 555.484 237.59 555.009 239.219 554.213 241.155 554.384 242.619 555.453 244.834 557.234 246.122 559.922 246.125 562.764 246.083 568.036 241.782 572.28 236.51 572.25L235.771 572.25C230.464 572.243 226.163 567.943 226.156 562.635L226.156 543.893 232.685 537.362C233.84 536.207 233.84 534.335 232.685 533.179L226.896 527.388 226.896 476.844C226.9 473.354 225.722 469.965 223.554 467.229L286.802 467.229C292.109 467.236 296.41 471.536 296.417 476.844L296.417 482.274 292.846 485.846C291.887 486.806 291.704 488.296 292.402 489.46L295.758 495.054 289.706 502.315C288.66 503.57 288.83 505.436 290.085 506.482 290.149 506.535 290.215 506.585 290.283 506.633L296.417 510.927 296.417 548.583ZM299.375 572.25 248.721 572.25C252.794 567.137 253.152 559.994 249.608 554.5L299.375 554.5C304.277 554.5 308.25 558.474 308.25 563.375 308.25 568.276 304.277 572.25 299.375 572.25Z" fill="#000000" fill-rule="nonzero" fill-opacity="1"/><path d="M256.479 484.979 281.625 484.979 281.625 490.896 256.479 490.896Z" fill="#000000" fill-rule="nonzero" fill-opacity="1"/><path d="M241.688 484.979 250.562 484.979 250.562 490.896 241.688 490.896Z" fill="#000000" fill-rule="nonzero" fill-opacity="1"/><path d="M256.479 529.354 281.625 529.354 281.625 535.271 256.479 535.271Z" fill="#000000" fill-rule="nonzero" fill-opacity="1"/><path d="M241.688 529.354 250.562 529.354 250.562 535.271 241.688 535.271Z" fill="#000000" fill-rule="nonzero" fill-opacity="1"/><path d="M241.688 499.771 266.833 499.771 266.833 505.688 241.688 505.688Z" fill="#000000" fill-rule="nonzero" fill-opacity="1"/><path d="M272.75 499.771 281.625 499.771 281.625 505.688 272.75 505.688Z" fill="#000000" fill-rule="nonzero" fill-opacity="1"/><path d="M241.688 514.562 281.625 514.562 281.625 520.479 241.688 520.479Z" fill="#000000" fill-rule="nonzero" fill-opacity="1"/></g></g></svg>