<svg width="142" height="142" xmlns="http://www.w3.org/2000/svg" xmlns:xlink="http://www.w3.org/1999/xlink" xml:space="preserve" overflow="hidden"><g transform="translate(-412 -448)"><g><path d="M483 479.071C479.732 479.071 477.083 481.72 477.083 484.988 477.083 488.256 479.732 490.905 483 490.905 486.268 490.905 488.917 488.256 488.917 484.988 488.907 481.724 486.264 479.081 483 479.071ZM483 487.946C481.366 487.946 480.042 486.622 480.042 484.988 480.042 483.354 481.366 482.03 483 482.03 484.634 482.03 485.958 483.354 485.958 484.988 485.96 486.622 484.637 487.948 483.003 487.949 483.002 487.949 483.001 487.949 483 487.949Z" fill="#000000" fill-rule="nonzero" fill-opacity="1"/><path d="M528.854 558.969 528.854 554.5 522.938 554.5 522.938 508.646 528.854 508.646 528.854 501.25 536.25 501.25 536.25 498.292 483 465.75 429.75 498.292 429.75 501.25 437.146 501.25 437.146 508.646 443.062 508.646 443.062 554.5 437.146 554.5 437.146 558.969 426.792 566.364 426.792 572.25 539.208 572.25 539.208 566.366ZM519.979 554.5 517.021 554.5 517.021 508.646 519.979 508.646ZM451.938 508.646 460.812 508.646 460.812 554.5 451.938 554.5ZM463.771 508.646 466.729 508.646 466.729 554.5 463.771 554.5ZM469.688 508.646 478.562 508.646 478.562 554.5 469.688 554.5ZM481.521 508.646 484.479 508.646 484.479 554.5 481.521 554.5ZM487.438 508.646 496.312 508.646 496.312 554.5 487.438 554.5ZM499.271 508.646 502.229 508.646 502.229 554.5 499.271 554.5ZM505.188 508.646 514.062 508.646 514.062 554.5 505.188 554.5ZM435.468 498.264 483 469.222 530.532 498.264C530.539 498.266 530.544 498.275 530.541 498.282 530.54 498.287 530.536 498.29 530.532 498.292L435.477 498.292C435.468 498.29 435.462 498.282 435.463 498.273 435.464 498.27 435.466 498.266 435.468 498.264ZM440.104 501.25 525.896 501.25 525.896 505.688 440.104 505.688ZM446.021 508.646 448.979 508.646 448.979 554.5 446.021 554.5ZM440.104 560.491 440.104 557.458 525.896 557.458 525.896 560.491 527.134 561.378 527.862 561.899 438.138 561.899 438.868 561.378ZM536.25 569.292 429.75 569.292 429.75 567.889 433.997 564.854 532.011 564.854 536.25 567.889Z" fill="#000000" fill-rule="nonzero" fill-opacity="1"/></g></g></svg>